<svg width="150" height="150" viewBox="0 0 150 150" fill="none" xmlns="http://www.w3.org/2000/svg">
<rect width="150" height="150" fill="white"/>
<path d="M78.5918 88.957H62.0879C61.86 85.5065 62.0553 82.6257 62.6738 80.3145C63.2923 77.9707 64.1224 76.0339 65.1641 74.5039C66.2383 72.9414 67.4264 71.6882 68.7285 70.7441C70.0632 69.7676 71.349 68.9375 72.5859 68.2539C73.8555 67.5378 74.9622 66.8542 75.9062 66.2031C76.8828 65.5521 77.5501 64.7383 77.9082 63.7617C78.1361 63.1758 78.2012 62.5085 78.1035 61.7598C78.0059 60.9785 77.6641 60.2461 77.0781 59.5625C76.5247 58.8789 75.6784 58.3092 74.5391 57.8535C73.4323 57.3652 71.9837 57.1211 70.1934 57.1211C69.0215 57.1211 67.6217 57.235 65.9941 57.4629C64.3991 57.6582 62.7227 57.9837 60.9648 58.4395C59.207 58.8626 57.4655 59.3997 55.7402 60.0508C54.0475 60.6693 52.5176 61.3854 51.1504 62.1992L49.002 43.0586C50.2064 42.3424 51.5573 41.61 53.0547 40.8613C54.5846 40.0801 56.2611 39.3965 58.084 38.8105C59.9069 38.1921 61.8926 37.6875 64.041 37.2969C66.1895 36.9062 68.5007 36.7109 70.9746 36.7109C74.9785 36.7109 78.7546 37.2643 82.3027 38.3711C85.8835 39.4779 89.0085 41.1055 91.6777 43.2539C94.347 45.4023 96.4629 48.0553 98.0254 51.2129C99.5879 54.3379 100.369 57.9349 100.369 62.0039C100.369 65.0964 99.9297 67.5866 99.0508 69.4746C98.1719 71.3301 97.0488 72.86 95.6816 74.0645C94.3145 75.2689 92.7845 76.278 91.0918 77.0918C89.3991 77.9056 87.7389 78.8008 86.1113 79.7773C84.5163 80.7214 83.0352 81.8932 81.668 83.293C80.3333 84.6927 79.3079 86.5807 78.5918 88.957ZM81.0332 101.848C81.0332 103.28 80.7565 104.615 80.2031 105.852C79.6497 107.089 78.901 108.163 77.957 109.074C77.0456 110.018 75.9714 110.751 74.7344 111.271C73.4974 111.825 72.179 112.102 70.7793 112.102C69.347 112.102 68.0124 111.825 66.7754 111.271C65.5384 110.751 64.4479 110.018 63.5039 109.074C62.5924 108.163 61.86 107.089 61.3066 105.852C60.7858 104.615 60.5254 103.28 60.5254 101.848C60.5254 100.448 60.7858 99.1133 61.3066 97.8438C61.86 96.5742 62.5924 95.4837 63.5039 94.5723C64.4479 93.6283 65.5384 92.8796 66.7754 92.3262C68.0124 91.7728 69.347 91.4961 70.7793 91.4961C72.179 91.4961 73.4974 91.7728 74.7344 92.3262C75.9714 92.8796 77.0456 93.6283 77.957 94.5723C78.901 95.4837 79.6497 96.5742 80.2031 97.8438C80.7565 99.1133 81.0332 100.448 81.0332 101.848Z" fill="#010E2E"/>
</svg>
